<svg width="69" height="69" viewBox="0 0 69 69" fill="none" xmlns="http://www.w3.org/2000/svg">
<path d="M5.75 51.75V37.375C5.75 36.0813 6.01354 34.9073 6.54063 33.8531C7.06771 32.799 7.7625 31.8646 8.625 31.05V23C8.625 20.6042 9.46354 18.5677 11.1406 16.8906C12.8177 15.2135 14.8542 14.375 17.25 14.375H28.75C29.8521 14.375 30.8823 14.5791 31.8406 14.9874C32.799 15.3956 33.6854 15.9582 34.5 16.675C35.3146 15.9563 36.201 15.3937 37.1594 14.9874C38.1177 14.581 39.1479 14.3769 40.25 14.375H51.75C54.1458 14.375 56.1823 15.2135 57.8594 16.8906C59.5365 18.5677 60.375 20.6042 60.375 23V31.05C61.2375 31.8646 61.9323 32.799 62.4594 33.8531C62.9865 34.9073 63.25 36.0813 63.25 37.375V51.75C63.25 52.5646 62.974 53.2479 62.422 53.7999C61.87 54.3519 61.1877 54.6269 60.375 54.625C59.5623 54.6231 58.88 54.3471 58.328 53.797C57.776 53.2469 57.5 52.5646 57.5 51.75V48.875H11.5V51.75C11.5 52.5646 11.224 53.2479 10.672 53.7999C10.12 54.3519 9.43767 54.6269 8.625 54.625C7.81233 54.6231 7.13 54.3471 6.578 53.797C6.026 53.2469 5.75 52.5646 5.75 51.75ZM37.375 28.75H54.625V23C54.625 22.1854 54.349 21.5031 53.797 20.953C53.245 20.4029 52.5627 20.1269 51.75 20.125H40.25C39.4354 20.125 38.7531 20.401 38.203 20.953C37.6529 21.505 37.3769 22.1873 37.375 23V28.75ZM14.375 28.75H31.625V23C31.625 22.1854 31.349 21.5031 30.797 20.953C30.245 20.4029 29.5627 20.1269 28.75 20.125H17.25C16.4354 20.125 15.7531 20.401 15.203 20.953C14.6529 21.505 14.3769 22.1873 14.375 23V28.75Z" fill="#FFC107"/>
</svg>
