<svg width="62" height="62" viewBox="0 0 62 62" fill="none" xmlns="http://www.w3.org/2000/svg">
<path d="M36.1332 30.0317C36.2286 30.0318 36.3219 30.0037 36.4014 29.9509C36.4809 29.8981 36.5431 29.8231 36.5801 29.7351C36.6171 29.6471 36.6273 29.5502 36.6094 29.4565C36.5915 29.3628 36.5463 29.2764 36.4795 29.2083L26.9857 19.5547C26.9183 19.4862 26.8319 19.4393 26.7377 19.42C26.6436 19.4007 26.5457 19.4099 26.4568 19.4464C26.3678 19.4829 26.2918 19.545 26.2382 19.6249C26.1847 19.7048 26.1562 19.7988 26.1563 19.8949V28.5786C26.1563 28.964 26.3093 29.3336 26.5819 29.6061C26.8544 29.8786 27.224 30.0317 27.6094 30.0317H36.1332Z" fill="#FFC107"/>
<path d="M23.8555 32.3325C23.3581 31.8418 22.9629 31.2574 22.6927 30.6131C22.4225 29.9687 22.2826 29.2773 22.2812 28.5786V17.4379H13.5625C11.5089 17.444 9.54122 18.2625 8.08913 19.7146C6.63703 21.1667 5.81857 23.1344 5.8125 25.1879V52.3129C5.8125 54.3684 6.62902 56.3396 8.08242 57.793C9.53583 59.2464 11.5071 60.0629 13.5625 60.0629H31C33.0554 60.0629 35.0267 59.2464 36.4801 57.793C37.9335 56.3396 38.75 54.3684 38.75 52.3129V33.9067H27.6094C26.9106 33.9058 26.219 33.7661 25.5746 33.4959C24.9302 33.2257 24.3459 32.8302 23.8555 32.3325ZM45.0469 14.5317H53.5707C53.6661 14.5318 53.7594 14.5037 53.8389 14.4509C53.9184 14.3981 53.9806 14.3231 54.0176 14.2351C54.0546 14.1471 54.0648 14.0502 54.0469 13.9565C54.029 13.8628 53.9838 13.7764 53.917 13.7083L44.4232 4.05466C44.3558 3.98615 44.2694 3.93927 44.1752 3.91999C44.0811 3.90071 43.9832 3.90991 43.8943 3.9464C43.8053 3.98289 43.7293 4.04503 43.6757 4.12491C43.6222 4.20478 43.5937 4.29878 43.5938 4.39493V13.0786C43.5938 13.464 43.7468 13.8336 44.0194 14.1061C44.2919 14.3786 44.6615 14.5317 45.0469 14.5317Z" fill="#FFC107"/>
<path d="M45.0469 18.4062C43.6371 18.3955 42.2881 17.8307 41.2912 16.8338C40.2943 15.8369 39.7295 14.4879 39.7188 13.0781V1.9375H26.6406C24.7144 1.93974 22.8676 2.70595 21.5055 4.06803C20.1434 5.43011 19.3772 7.27685 19.375 9.20312V13.5625H24.4755C25.1265 13.565 25.7706 13.6962 26.3708 13.9485C26.971 14.2008 27.5153 14.5692 27.9727 15.0326L41.1913 28.474C42.1135 29.4096 42.6285 30.6719 42.6238 31.9857V48.4375H49.0478C52.9846 48.4375 56.1863 45.1777 56.1863 41.1719V18.4062H45.0469Z" fill="#FFC107"/>
</svg>
