<svg width="44" height="59" viewBox="0 0 44 59" fill="none" xmlns="http://www.w3.org/2000/svg">
<mask id="mask0_799_19" style="mask-type:luminance" maskUnits="userSpaceOnUse" x="0" y="0" width="44" height="59">
<path d="M22 58C22 58 43 40.9 43 22.375C43 10.5703 33.5976 1 22 1C10.4024 1 1 10.5703 1 22.375C1 40.9 22 58 22 58Z" fill="white" stroke="white" stroke-width="2" stroke-linejoin="round"/>
<path d="M22 30.9252C23.1031 30.9252 24.1954 30.704 25.2145 30.2744C26.2337 29.8447 27.1597 29.2149 27.9397 28.421C28.7197 27.627 29.3384 26.6845 29.7606 25.6471C30.1827 24.6098 30.4 23.498 30.4 22.3752C30.4 21.2524 30.1827 20.1406 29.7606 19.1033C29.3384 18.0659 28.7197 17.1234 27.9397 16.3294C27.1597 15.5355 26.2337 14.9057 25.2145 14.476C24.1954 14.0463 23.1031 13.8252 22 13.8252C19.7722 13.8252 17.6356 14.726 16.0603 16.3294C14.485 17.9329 13.6 20.1076 13.6 22.3752C13.6 24.6428 14.485 26.8175 16.0603 28.421C17.6356 30.0244 19.7722 30.9252 22 30.9252Z" fill="black" stroke="black" stroke-width="2" stroke-linejoin="round"/>
</mask>
<g mask="url(#mask0_799_19)">
<path d="M-11.6 -4.7002H55.6V63.6998H-11.6V-4.7002Z" fill="#FFC107"/>
</g>
</svg>
