<svg width="146" height="37" viewBox="0 0 146 37" fill="none" xmlns="http://www.w3.org/2000/svg">
<path d="M12.4619 5.40137C9.61225 5.40149 7.63241 6.49155 6.52148 8.66992C6.18345 9.33668 6.01371 10.0032 6.01367 10.6699V25.3418C6.01372 26.9867 6.83526 28.3871 8.47754 29.543C9.63668 30.3431 10.9647 30.7431 12.4619 30.7432V36.1455C7.87328 36.1454 4.32324 34.433 1.81152 31.0098C0.604127 29.3205 0.000102663 27.7204 0 26.209V9.73633C6.3939e-05 7.64692 1.01445 5.60207 3.04297 3.60156C5.55466 1.20088 8.69443 0.000103187 12.4619 0V5.40137ZM15.9004 0C20.3441 0.000111149 23.7734 1.66764 26.1885 5.00195C27.396 6.64683 27.9999 8.22482 28 9.73633V26.209C27.9999 28.3873 26.9856 30.499 24.957 32.5439C22.5902 34.9002 19.5953 36.101 15.9727 36.1455V30.7432C18.5326 30.7431 20.3685 29.676 21.4795 27.542C21.8658 26.8308 22.0586 26.1413 22.0586 25.4746V10.6699C22.0585 8.84722 21.213 7.40193 19.5225 6.33496C18.46 5.71276 17.2526 5.40144 15.9004 5.40137V0ZM137.832 15.5576C136.295 15.5577 135.227 16.1399 134.628 17.3047C134.446 17.6613 134.355 18.0184 134.354 18.375V26.2217C134.354 27.1014 134.797 27.8506 135.683 28.4688C136.308 28.8967 137.025 29.1113 137.832 29.1113V32C135.357 31.9999 133.443 31.0845 132.088 29.2539C131.437 28.3503 131.11 27.494 131.11 26.6855V17.876C131.11 16.7585 131.658 15.6647 132.752 14.5947C134.107 13.3108 135.8 12.668 137.832 12.668V15.5576ZM139.474 12.668C141.871 12.668 143.721 13.5604 145.023 15.3438C145.675 16.2234 146 17.0676 146 17.876V26.6855C146 27.8507 145.453 28.9804 144.358 30.0742C143.082 31.3343 141.467 31.9762 139.513 32V29.1113C140.893 29.1113 141.883 28.5404 142.482 27.3994C142.691 27.019 142.796 26.6496 142.796 26.293V18.375C142.796 17.4002 142.34 16.6273 141.428 16.0566C140.855 15.7238 140.203 15.5576 139.474 15.5576V12.668ZM42.4004 17.0195V31.9639H39V12.4541H39.3125L42.4004 17.0195ZM56.3906 28.1484V31.9639H54.71L39 8.99512V6.99707H41.9307L56.3906 28.1484ZM84.0977 15.5215C82.6909 15.5215 81.7661 16.0807 81.3232 17.1982C81.193 17.5549 81.1279 17.9119 81.1279 18.2686V31.9639H77.8057V17.876C77.8057 16.5445 78.3532 15.3557 79.4473 14.3096C80.6717 13.1683 82.2219 12.5967 84.0977 12.5967V15.5215ZM95.2354 15.5215C93.8286 15.5215 92.8908 16.0807 92.4219 17.1982C92.2916 17.5311 92.2266 17.8881 92.2266 18.2686V31.9639H88.9043V18.2686C88.9043 17.056 88.3447 16.2233 87.2246 15.7715C86.8078 15.605 86.3515 15.5215 85.8564 15.5215V12.5967C87.8364 12.6442 89.3996 13.2747 90.5459 14.4873C91.8485 13.2747 93.4117 12.6443 95.2354 12.5967V15.5215ZM96.9941 12.5967C99.469 12.5967 101.305 13.5245 102.504 15.3789C103.051 16.2349 103.325 17.0675 103.325 17.876V31.9639H100.003V18.2686C100.003 16.9609 99.4042 16.1045 98.2061 15.7002C97.8413 15.5813 97.437 15.5215 96.9941 15.5215V12.5967ZM109.773 31.9639H106.412V6.74805H109.773V31.9639ZM114.814 12.668C116.899 12.668 118.592 13.4655 119.895 15.0586C120.65 15.9858 121.041 16.9126 121.067 17.8398V26.6855C121.067 27.7793 120.546 28.873 119.504 29.9668C118.227 31.2746 116.638 31.9401 114.736 31.9639H111.688V29.0752H114.775C115.791 29.0752 116.651 28.6593 117.354 27.8271C117.693 27.3991 117.862 26.9947 117.862 26.6143V17.9824C117.862 17.2693 117.433 16.6395 116.573 16.0928C116 15.7361 115.414 15.5576 114.814 15.5576H111.688V12.668H114.814ZM127.594 31.9639H124.311V13.168H127.594V31.9639ZM67.5674 12.5967C69.3649 12.5967 70.8631 13.1199 72.0615 14.166C73.3381 15.3074 73.9766 16.6393 73.9766 18.1611V27.9336C74.0026 28.6707 74.354 29.0637 75.0312 29.1113V31.9287C73.7288 31.9287 72.6738 31.5127 71.8662 30.6807C70.8241 31.4891 69.391 31.9049 67.5674 31.9287V29.1465C67.8018 29.1465 68.0492 29.1351 68.3096 29.1113C69.9509 28.8735 70.7715 27.9811 70.7715 26.4355V22.334C70.0941 22.6668 68.7918 23.0476 66.8643 23.4756C64.3895 24.0224 62.9955 24.4269 62.6826 24.6885C62.396 24.9263 62.2389 25.307 62.2129 25.8301V26.793C62.2391 28.3145 63.3859 29.0989 65.6523 29.1465V31.9287C64.0371 31.9287 62.6301 31.548 61.4316 30.7871C60.025 29.8837 59.3214 28.7783 59.3213 27.4707V25.7578C59.3214 24.2125 59.9859 23.0834 61.3145 22.3701C61.7313 22.1799 63.3335 21.728 66.1211 21.0146C69.2206 20.2302 70.7707 19.5406 70.7715 18.9463V18.2686C70.7715 17.698 70.6153 17.1747 70.3027 16.6992C69.7035 15.7957 68.7918 15.3438 67.5674 15.3438V12.5967ZM56.3906 24.6172H56.0781L52.9902 20.0518V6.99707H56.3906V24.6172ZM14.001 10.6484C14.6799 10.6484 15.1158 11.1594 15.3574 11.6416C15.6068 12.1411 15.7266 12.7464 15.7266 13.2373V16.4219L20.1875 18.6514C20.4026 18.7588 20.5835 18.9244 20.71 19.1289C20.8364 19.3334 20.9033 19.5692 20.9033 19.8096V21.002C20.9033 21.0644 20.8895 21.126 20.8633 21.1826C20.8369 21.2394 20.7988 21.2906 20.751 21.3311C20.7033 21.3714 20.6471 21.4003 20.5869 21.417C20.5266 21.4336 20.4631 21.437 20.4014 21.4268L15.6504 20.6348L15.3262 22.5791L16.4639 23.7158C16.5243 23.7761 16.5653 23.8537 16.582 23.9375C16.5986 24.0211 16.5902 24.1078 16.5576 24.1865C16.525 24.2653 16.4693 24.3325 16.3984 24.3799C16.3274 24.4273 16.2436 24.4533 16.1582 24.4531H11.8447C11.7593 24.4533 11.6756 24.4273 11.6045 24.3799C11.5335 24.3325 11.478 24.2654 11.4453 24.1865C11.4126 24.1077 11.4043 24.0212 11.4209 23.9375C11.4376 23.8537 11.4786 23.7762 11.5391 23.7158L12.6768 22.5791L12.3525 20.6348L7.60156 21.4268C7.53979 21.437 7.47638 21.4336 7.41602 21.417C7.35577 21.4004 7.29966 21.3714 7.25195 21.3311C7.20417 21.2906 7.16599 21.2394 7.13965 21.1826C7.1134 21.1259 7.09966 21.0644 7.09961 21.002V19.8096C7.09962 19.5691 7.16648 19.3334 7.29297 19.1289C7.41945 18.9244 7.6003 18.7588 7.81543 18.6514L12.2754 16.4219V13.2373C12.2754 12.7473 12.3961 12.1403 12.6445 11.6416C12.8861 11.1585 13.3222 10.6486 14.001 10.6484ZM65.6914 15.3789C65.1964 15.3789 64.7271 15.4738 64.2842 15.6641C63.0859 16.1872 62.4874 17.1149 62.4873 18.4463L59.5947 17.4482C59.5947 16.307 60.0902 15.2844 61.0801 14.3809C62.3567 13.192 63.8937 12.5967 65.6914 12.5967V15.3789ZM125.952 8.31738C126.734 8.31738 127.307 8.64973 127.672 9.31543C127.776 9.55321 127.828 9.79152 127.828 10.0293C127.828 10.7425 127.463 11.2658 126.733 11.5986C126.473 11.6937 126.213 11.7412 125.952 11.7412C125.145 11.7412 124.558 11.408 124.193 10.7422C124.089 10.5046 124.037 10.2669 124.037 10.0293C124.037 9.29218 124.415 8.76908 125.171 8.45996C125.431 8.3649 125.692 8.31738 125.952 8.31738ZM70.1855 10.4219H67.958L66.2773 7.31836L64.6367 10.4219H62.4092L65.3398 5H67.2158L70.1855 10.4219Z" fill="white"/>
</svg>
