<svg width="83" height="108" viewBox="0 0 83 108" fill="none" xmlns="http://www.w3.org/2000/svg">
<path d="M36.9424 16.0127C28.4944 16.0128 22.6234 19.2416 19.3301 25.6992C18.328 27.6757 17.8272 29.6524 17.8271 31.6289V75.1201C17.8272 79.9962 20.2615 84.1478 25.1299 87.5742C28.5663 89.9462 32.5038 91.1318 36.9424 91.1318V107.145C23.3396 107.144 12.8149 102.071 5.36914 91.9229C1.78955 86.915 0 82.1702 0 77.6895V28.8613C0.000150622 22.6674 3.00682 16.6051 9.02051 10.6748C16.4663 3.55826 25.7738 8.036e-05 36.9424 0V16.0127Z" fill="white"/>
<path d="M47.1328 0C60.3061 3.33925e-05 70.4724 4.94207 77.6318 14.8262C81.2114 19.7022 83.0018 24.3806 83.002 28.8613V77.6895C83.002 84.1471 79.9944 90.4074 73.9805 96.4697C66.9643 103.454 58.0867 107.013 47.3477 107.145V91.1318C54.9365 91.1318 60.3776 87.9693 63.6709 81.6436C64.8163 79.5351 65.3896 77.4923 65.3896 75.5156V31.6289C65.3895 26.2259 62.8833 21.9431 57.8721 18.7803C54.7219 16.9352 51.1421 16.0127 47.1328 16.0127V0Z" fill="white"/>
<path d="M41.5049 31.5664C43.5174 31.5666 44.8083 33.0803 45.5244 34.5098C46.2635 35.9905 46.6191 37.7831 46.6191 39.2383V48.6777L59.8418 55.2891C60.4794 55.6074 61.0157 56.097 61.3906 56.7031C61.7655 57.3093 61.9648 58.008 61.9648 58.7207V62.2549C61.9648 62.4405 61.9238 62.6246 61.8457 62.793C61.7677 62.9612 61.6541 63.1106 61.5127 63.2305C61.3711 63.3504 61.2043 63.438 61.0254 63.4873C60.8465 63.5366 60.6586 63.547 60.4756 63.5166L46.3916 61.168L45.4326 66.9307L48.8037 70.3008C48.9829 70.4796 49.1047 70.7078 49.1543 70.9561C49.2038 71.2044 49.179 71.4623 49.082 71.6963C48.9851 71.9302 48.82 72.1301 48.6094 72.2705C48.3988 72.4108 48.1514 72.4858 47.8984 72.4854H35.1104C34.8574 72.4857 34.6099 72.4108 34.3994 72.2705C34.1887 72.1301 34.0237 71.9302 33.9268 71.6963C33.8298 71.4623 33.805 71.2044 33.8545 70.9561C33.904 70.7078 34.0259 70.4796 34.2051 70.3008L37.5791 66.9307L36.6172 61.168L22.5332 63.5166C22.3501 63.547 22.1623 63.5366 21.9834 63.4873C21.8046 63.438 21.6387 63.3504 21.4971 63.2305C21.3555 63.1105 21.2412 62.9613 21.1631 62.793C21.085 62.6246 21.045 62.4405 21.0449 62.2549V58.7207C21.045 58.008 21.2433 57.3093 21.6182 56.7031C21.993 56.097 22.5294 55.6074 23.167 55.2891L36.3896 48.6777V39.2383C36.3897 37.7857 36.7478 35.9879 37.4844 34.5098C38.2005 33.0776 39.4921 31.5664 41.5049 31.5664Z" fill="white"/>
</svg>
