<svg width="69" height="69" viewBox="0 0 69 69" fill="none" xmlns="http://www.w3.org/2000/svg">
<path d="M34.5 47.4375C35.6437 47.4375 36.7406 47.8919 37.5494 48.7006C38.3581 49.5094 38.8125 50.6063 38.8125 51.75C38.8125 52.8938 38.3581 53.9907 37.5494 54.7994C36.7406 55.6082 35.6437 56.0625 34.5 56.0625C33.3563 56.0625 32.2593 55.6082 31.4506 54.7994C30.6418 53.9907 30.1875 52.8938 30.1875 51.75C30.1875 50.6063 30.6418 49.5094 31.4506 48.7006C32.2593 47.8919 33.3563 47.4375 34.5 47.4375ZM34.5 35.9375C38.6933 35.9369 42.7151 37.6019 45.6809 40.5663C46.4661 41.3472 46.9208 42.4002 46.9508 43.5072C46.9809 44.6142 46.5839 45.6903 45.8422 46.5126C45.1004 47.3349 44.0708 47.8403 42.9666 47.9242C41.8624 48.0081 40.7682 47.664 39.9107 46.9632L39.583 46.667C38.9154 45.9996 38.123 45.4703 37.2508 45.1092C36.3787 44.7481 35.4439 44.5624 34.5 44.5625C32.7117 44.5625 31.0816 45.2094 29.8224 46.2904L29.4199 46.667C28.6112 47.476 27.5144 47.9307 26.3705 47.931C25.2267 47.9312 24.1296 47.4771 23.3206 46.6685C22.5115 45.8598 22.0569 44.763 22.0566 43.6191C22.0564 42.4753 22.5105 41.3782 23.3191 40.5692C26.2844 37.6037 30.3063 35.9377 34.5 35.9375ZM34.5 24.4375C42.0411 24.4375 48.875 27.4994 53.8114 32.4387C54.2351 32.8335 54.5749 33.3096 54.8106 33.8386C55.0463 34.3676 55.1731 34.9386 55.1833 35.5176C55.1935 36.0967 55.087 36.6719 54.8701 37.2088C54.6532 37.7458 54.3303 38.2336 53.9208 38.6431C53.5113 39.0526 53.0235 39.3755 52.4866 39.5924C51.9496 39.8093 51.3744 39.9158 50.7954 39.9056C50.2163 39.8953 49.6453 39.7686 49.1163 39.5329C48.5873 39.2972 48.1112 38.9574 47.7164 38.5337C45.9825 36.7959 43.9223 35.418 41.6542 34.4791C39.3861 33.5402 36.9548 33.0588 34.5 33.0625C32.0455 33.0595 29.6146 33.5416 27.347 34.481C25.0794 35.4204 23.0198 36.7987 21.2865 38.5365C20.4779 39.3455 19.381 39.8002 18.2371 39.8005C17.0933 39.8007 15.9962 39.3466 15.1872 38.538C14.3782 37.7293 13.9235 36.6325 13.9233 35.4886C13.923 34.3448 14.3771 33.2477 15.1857 32.4387C17.7201 29.8995 20.7308 27.8856 24.0452 26.5126C27.3596 25.1396 30.9125 24.4344 34.5 24.4375ZM34.5 12.9375C45.2151 12.9375 54.9269 17.2874 61.9447 24.3053C62.3451 24.7059 62.6627 25.1814 62.8793 25.7047C63.0959 26.228 63.2074 26.7889 63.2072 27.3552C63.2071 27.9216 63.0954 28.4824 62.8785 29.0056C62.6617 29.5288 62.3439 30.0042 61.9433 30.4046C61.5427 30.805 61.0672 31.1226 60.5439 31.3392C60.0206 31.5558 59.4597 31.6672 58.8934 31.6671C58.327 31.6669 57.7662 31.5553 57.243 31.3384C56.7198 31.1215 56.2444 30.8037 55.844 30.4032C53.0447 27.5953 49.7179 25.3687 46.0548 23.8515C42.3918 22.3342 38.4648 21.5563 34.5 21.5625C26.1625 21.5625 18.6214 24.9378 13.1531 30.4032C12.7571 30.822 12.2812 31.1572 11.7534 31.389C11.2256 31.6208 10.6568 31.7444 10.0804 31.7525C9.50403 31.7607 8.93188 31.6532 8.39777 31.4365C7.86366 31.2197 7.37842 30.8981 6.97073 30.4906C6.56304 30.0831 6.24119 29.598 6.02418 29.064C5.80718 28.53 5.69943 27.9579 5.70731 27.3815C5.71519 26.8052 5.83854 26.2362 6.07006 25.7083C6.30158 25.1805 6.63657 24.7043 7.05525 24.3082C10.6553 20.6985 14.9332 17.8357 19.6431 15.8844C24.3529 13.933 29.4019 12.9316 34.5 12.9375Z" fill="#FFC107"/>
</svg>
