<svg width="89" height="89" viewBox="0 0 89 89" fill="none" xmlns="http://www.w3.org/2000/svg">
<path d="M13.9062 72.3125V16.6875C13.9062 13.737 15.0783 10.9073 17.1647 8.82094C19.251 6.7346 22.0807 5.5625 25.0312 5.5625H63.9688C66.9193 5.5625 69.749 6.7346 71.8353 8.82094C73.9217 10.9073 75.0938 13.737 75.0938 16.6875V67.4453C75.0938 68.7362 74.581 69.9742 73.6682 70.8869C72.7554 71.7997 71.5174 72.3125 70.2266 72.3125H19.4688C19.4688 73.7878 20.0548 75.2026 21.098 76.2458C22.1411 77.289 23.556 77.875 25.0312 77.875H72.3125C73.0501 77.875 73.7576 78.168 74.2791 78.6896C74.8007 79.2112 75.0938 79.9186 75.0938 80.6562C75.0938 81.3939 74.8007 82.1013 74.2791 82.6229C73.7576 83.1445 73.0501 83.4375 72.3125 83.4375H25.0312C22.0807 83.4375 19.251 82.2654 17.1647 80.1791C15.0783 78.0927 13.9063 75.263 13.9062 72.3125ZM29.8984 16.6875C28.6076 16.6875 27.3696 17.2003 26.4568 18.1131C25.544 19.0258 25.0312 20.2638 25.0312 21.5547V25.7266C25.0312 28.4133 27.2117 30.5938 29.8984 30.5938H59.1016C60.3924 30.5938 61.6304 30.081 62.5432 29.1682C63.456 28.2554 63.9688 27.0174 63.9688 25.7266V21.5547C63.9688 20.2638 63.456 19.0258 62.5432 18.1131C61.6304 17.2003 60.3924 16.6875 59.1016 16.6875H29.8984Z" fill="#3EBAEF"/>
</svg>
