<svg width="47" height="47" viewBox="0 0 47 47" fill="none" xmlns="http://www.w3.org/2000/svg">
<path d="M37.2083 37.208H9.79167V15.6663H37.2083M31.3333 1.95801V5.87467H15.6667V1.95801H11.75V5.87467H9.79167C7.61792 5.87467 5.875 7.61759 5.875 9.79134V37.208C5.875 38.2468 6.28765 39.243 7.02216 39.9775C7.75668 40.712 8.7529 41.1247 9.79167 41.1247H37.2083C38.2471 41.1247 39.2433 40.712 39.9778 39.9775C40.7124 39.243 41.125 38.2468 41.125 37.208V9.79134C41.125 8.75258 40.7124 7.75636 39.9778 7.02184C39.2433 6.28732 38.2471 5.87467 37.2083 5.87467H35.25V1.95801M33.2917 23.4997H23.5V33.2913H33.2917V23.4997Z" fill="#ED6D00"/>
</svg>
