<svg width="47" height="47" viewBox="0 0 47 47" fill="none" xmlns="http://www.w3.org/2000/svg">
<path d="M0 38.0983V26.3483C0 25.4671 0.179514 24.6674 0.538542 23.9493C0.89757 23.2313 1.37083 22.5948 1.95833 22.04V16.5566C1.95833 14.9247 2.52951 13.5375 3.67188 12.3952C4.81424 11.2528 6.20139 10.6816 7.83333 10.6816H15.6667C16.4174 10.6816 17.1191 10.8207 17.7719 11.0988C18.4247 11.3768 19.0285 11.76 19.5833 12.2483C20.1382 11.7587 20.742 11.3755 21.3948 11.0988C22.0476 10.822 22.7493 10.6829 23.5 10.6816H31.3333C32.9653 10.6816 34.3524 11.2528 35.4948 12.3952C36.6372 13.5375 37.2083 14.9247 37.2083 16.5566V22.04C37.7958 22.5948 38.2691 23.2313 38.6281 23.9493C38.9872 24.6674 39.1667 25.4671 39.1667 26.3483V38.0983H35.25V34.1816H3.91667V38.0983H0ZM21.5417 20.4733H33.2917V16.5566C33.2917 16.0018 33.1037 15.537 32.7277 15.1623C32.3517 14.7876 31.8869 14.5996 31.3333 14.5983H23.5C22.9451 14.5983 22.4804 14.7863 22.1057 15.1623C21.731 15.5383 21.543 16.0031 21.5417 16.5566V20.4733ZM5.875 20.4733H17.625V16.5566C17.625 16.0018 17.437 15.537 17.061 15.1623C16.685 14.7876 16.2202 14.5996 15.6667 14.5983H7.83333C7.27847 14.5983 6.81369 14.7863 6.439 15.1623C6.06431 15.5383 5.87631 16.0031 5.875 16.5566V20.4733ZM3.91667 30.265H35.25V26.3483C35.25 25.7934 35.062 25.3287 34.686 24.954C34.31 24.5793 33.8452 24.3913 33.2917 24.39H5.875C5.32014 24.39 4.85536 24.578 4.48067 24.954C4.10597 25.33 3.91797 25.7948 3.91667 26.3483V30.265Z" fill="#ED6D00"/>
</svg>
