<svg width="24" height="24" viewBox="0 0 24 24" fill="none" xmlns="http://www.w3.org/2000/svg">
<path d="M15.6 15H14.85C15 15.45 15 16.05 15 16.5C15 19.8 12.3 22.5 9 22.5C5.7 22.5 3 19.8 3 16.5C3 13.35 5.4 10.8 8.55 10.5L8.25 9C4.35 9.6 1.5 12.6 1.5 16.5C1.5 20.7 4.8 24 9 24C12.6 24 15.6 21.45 16.35 18.15L15.6 15Z" fill="#B3B3B3"/>
<path d="M19.65 19.5L18 12H11.85L11.55 10.5H16.5V9H11.25L10.35 5.25C11.7 5.1 12.75 4.05 12.75 2.7C12.75 1.2 11.55 0 10.05 0C8.55 0 7.5 1.2 7.5 2.7C7.5 3.6 7.95 4.5 8.7 4.95L10.65 13.5H16.8L18.6 21H22.5V19.5H19.65Z" fill="#B3B3B3"/>
</svg>
