<svg width="17" height="17" viewBox="0 0 17 17" fill="none" xmlns="http://www.w3.org/2000/svg">
<path fill-rule="evenodd" clip-rule="evenodd" d="M6.90625 14.5207V15.5832H4.78125C4.35856 15.5832 3.95318 15.4153 3.6543 15.1164C3.35541 14.8175 3.1875 14.4121 3.1875 13.9894V6.81471C3.1875 6.39255 3.35537 5.98667 3.65429 5.68846L7.45592 1.884C7.60394 1.7358 7.77972 1.61823 7.97322 1.53801C8.16671 1.45779 8.37412 1.4165 8.58358 1.4165H12.2187C12.6414 1.4165 13.0468 1.58442 13.3457 1.8833C13.6446 2.18219 13.8125 2.58757 13.8125 3.01025V6.90609H12.75V3.01025C12.75 2.86936 12.694 2.73423 12.5944 2.6346C12.4948 2.53497 12.3596 2.479 12.2187 2.479H8.67567L8.67779 5.31092C8.67798 5.52039 8.63687 5.72785 8.55681 5.92142C8.47676 6.11499 8.35933 6.29089 8.21124 6.43904C8.06316 6.58719 7.88732 6.7047 7.69378 6.78484C7.50024 6.86498 7.29281 6.90618 7.08333 6.90609H4.25V13.9894C4.25 14.2827 4.488 14.5207 4.78125 14.5207H6.90625ZM7.61387 3.22913L5.00012 5.84359H7.08404C7.22494 5.84359 7.36006 5.78762 7.45969 5.68799C7.55932 5.58836 7.61529 5.45323 7.61529 5.31234L7.61387 3.22913Z" fill="#ED6D00"/>
<path fill-rule="evenodd" clip-rule="evenodd" d="M14.3784 8.74006C14.2633 8.62494 14.1266 8.53363 13.9762 8.47132C13.8258 8.40902 13.6646 8.37695 13.5018 8.37695C13.339 8.37695 13.1778 8.40902 13.0274 8.47132C12.877 8.53363 12.7404 8.62494 12.6253 8.74006L8.97169 12.3936C8.71452 12.6508 8.55306 12.9883 8.51411 13.3499L8.37953 14.5866C8.37101 14.6656 8.38031 14.7455 8.40675 14.8204C8.43319 14.8953 8.47609 14.9634 8.53229 15.0195C8.5885 15.0756 8.65657 15.1184 8.73152 15.1448C8.80646 15.1711 8.88635 15.1803 8.96532 15.1717L10.2028 15.0379C10.5642 14.9988 10.9013 14.8373 11.1583 14.5803L14.8119 10.9267C14.927 10.8116 15.0183 10.6749 15.0806 10.5245C15.1429 10.3741 15.175 10.2129 15.175 10.0501C15.175 9.88733 15.1429 9.72613 15.0806 9.57573C15.0183 9.42533 14.927 9.28867 14.8119 9.17356L14.3784 8.74006ZM12.7655 10.1022L13.4498 10.7864L10.4068 13.8294C10.321 13.9151 10.2085 13.9688 10.088 13.9817L9.50719 14.0448L9.57024 13.4639C9.58315 13.3434 9.63689 13.231 9.72253 13.1452L12.7655 10.1022Z" fill="#ED6D00"/>
</svg>
