<svg width="53" height="53" viewBox="0 0 53 53" fill="none" xmlns="http://www.w3.org/2000/svg">
<path d="M26.5 44.1668H11.0417C9.87029 44.1668 8.7469 43.7015 7.91861 42.8732C7.09033 42.0449 6.625 40.9215 6.625 39.7502V19.8752C6.625 18.7038 7.09033 17.5804 7.91861 16.7521C8.7469 15.9238 9.87029 15.4585 11.0417 15.4585H13.25C14.4214 15.4585 15.5448 14.9932 16.3731 14.1649C17.2013 13.3366 17.6667 12.2132 17.6667 11.0418C17.6667 10.4561 17.8993 9.89445 18.3135 9.4803C18.7276 9.06616 19.2893 8.8335 19.875 8.8335H33.125C33.7107 8.8335 34.2724 9.06616 34.6865 9.4803C35.1007 9.89445 35.3333 10.4561 35.3333 11.0418C35.3333 12.2132 35.7987 13.3366 36.6269 14.1649C37.4552 14.9932 38.5786 15.4585 39.75 15.4585H41.9583C43.1297 15.4585 44.2531 15.9238 45.0814 16.7521C45.9097 17.5804 46.375 18.7038 46.375 19.8752V27.6043" stroke="#B3B3B3" stroke-width="2" stroke-linecap="round" stroke-linejoin="round"/>
<path d="M41.9583 48.5835V35.3335M41.9583 35.3335L48.5833 41.9585M41.9583 35.3335L35.3333 41.9585M26.5 35.3335C28.2571 35.3335 29.9422 34.6355 31.1846 33.3931C32.427 32.1507 33.125 30.4656 33.125 28.7085C33.125 26.9514 32.427 25.2663 31.1846 24.0239C29.9422 22.7815 28.2571 22.0835 26.5 22.0835C24.7429 22.0835 23.0578 22.7815 21.8154 24.0239C20.573 25.2663 19.875 26.9514 19.875 28.7085C19.875 30.4656 20.573 32.1507 21.8154 33.3931C23.0578 34.6355 24.7429 35.3335 26.5 35.3335Z" stroke="#B3B3B3" stroke-width="2" stroke-linecap="round" stroke-linejoin="round"/>
</svg>
