<svg width="89" height="89" viewBox="0 0 89 89" fill="none" xmlns="http://www.w3.org/2000/svg">
<path d="M40.5673 8.34347C41.6104 7.30066 43.025 6.71484 44.5 6.71484C45.975 6.71484 47.3896 7.30066 48.4327 8.34347L61.1875 21.0983V13.906C61.1875 13.1683 61.4805 12.4609 62.0021 11.9393C62.5237 11.4177 63.2311 11.1247 63.9687 11.1247H69.5312C70.2689 11.1247 70.9763 11.4177 71.4979 11.9393C72.0195 12.4609 72.3125 13.1683 72.3125 13.906V32.2233L85.4066 45.3118C85.9281 45.8341 86.2208 46.5421 86.2203 47.2802C86.2198 48.0182 85.9261 48.7258 85.4038 49.2473C84.8816 49.7688 84.1736 50.0615 83.4355 50.061C82.6975 50.0605 81.9899 49.7668 81.4684 49.2445L44.5 12.2762L7.53162 49.2445C7.01011 49.7668 6.3025 50.0605 5.56446 50.061C4.82641 50.0615 4.11839 49.7688 3.59615 49.2473C3.0739 48.7258 2.78022 48.0182 2.77969 47.2802C2.77917 46.5421 3.07186 45.8341 3.59337 45.3118L40.5673 8.34347Z" fill="#3EBAEF"/>
<path d="M77.875 51.6924L44.5 18.3174L11.125 51.6924V75.0938C11.125 77.3067 12.0041 79.429 13.5688 80.9937C15.1336 82.5585 17.2558 83.4376 19.4688 83.4376H69.5312C71.7442 83.4376 73.8664 82.5585 75.4312 80.9937C76.9959 79.429 77.875 77.3067 77.875 75.0938V51.6924ZM44.5 47.1812C53.756 37.8751 76.9016 54.1566 44.5 75.0938C12.0984 54.1566 35.244 37.8751 44.5 47.1812Z" fill="#3EBAEF"/>
</svg>
