<svg width="64" height="21" viewBox="0 0 64 21" fill="none" xmlns="http://www.w3.org/2000/svg">
<g clip-path="url(#clip0_598_10)">
<path d="M62.0065 12.8342L63.782 14.0178C63.2057 14.8666 61.8275 16.3228 59.4446 16.3228C56.4856 16.3228 54.282 14.0334 54.282 11.1211C54.282 8.02193 56.509 5.91943 59.1955 5.91943C61.8975 5.91943 63.2212 8.06856 63.6496 9.22881L63.8832 9.82068L56.9217 12.7018C57.4512 13.7453 58.2767 14.2748 59.4446 14.2748C60.6127 14.2748 61.4225 13.6986 62.0065 12.8342ZM56.548 10.9577L61.1967 9.02643C60.9397 8.38018 60.1767 7.92081 59.2655 7.92081C58.1054 7.92081 56.4935 8.94868 56.548 10.9577Z" fill="#FF302F"/>
<path d="M50.9259 0.616211H53.1684V15.8475H50.9259V0.616211Z" fill="#20B15A"/>
<path d="M47.3906 6.32425H49.5554V15.5751C49.5554 19.414 47.2894 20.9947 44.6106 20.9947C42.0878 20.9947 40.5694 19.2972 40.0009 17.919L41.9865 17.0935C42.3446 17.9422 43.209 18.9469 44.6106 18.9469C46.3315 18.9469 47.3906 17.88 47.3906 15.8866V15.1391H47.3128C46.7988 15.762 45.8176 16.3226 44.5718 16.3226C41.9709 16.3226 39.588 14.0566 39.588 11.1366C39.588 8.20087 41.9709 5.91162 44.5718 5.91162C45.8099 5.91162 46.7988 6.4645 47.3128 7.07187H47.3906V6.32425ZM47.5463 11.1366C47.5463 9.29887 46.3238 7.9595 44.7664 7.9595C43.1934 7.9595 41.8696 9.29887 41.8696 11.1366C41.8696 12.9509 43.1934 14.2669 44.7664 14.2669C46.3239 14.2747 47.5464 12.9509 47.5464 11.1366" fill="#3686F7"/>
<path d="M27.277 11.0976C27.277 14.0956 24.941 16.2992 22.0754 16.2992C19.2099 16.2992 16.8738 14.0878 16.8738 11.0976C16.8738 8.08406 19.2099 5.88818 22.0754 5.88818C24.941 5.88818 27.277 8.08406 27.277 11.0976ZM25.0033 11.0976C25.0033 9.22881 23.6483 7.94381 22.0754 7.94381C20.5025 7.94381 19.1475 9.22881 19.1475 11.0976C19.1475 12.9508 20.5025 14.2513 22.0754 14.2513C23.6484 14.2513 25.0033 12.9508 25.0033 11.0976Z" fill="#FF302F"/>
<path d="M38.6381 11.1211C38.6381 14.1191 36.302 16.3227 33.4365 16.3227C30.5709 16.3227 28.2349 14.1189 28.2349 11.1211C28.2349 8.10756 30.5709 5.91943 33.4365 5.91943C36.302 5.91943 38.6381 8.09981 38.6381 11.1211ZM36.3565 11.1211C36.3565 9.25231 35.0016 7.96731 33.4286 7.96731C31.8556 7.96731 30.5007 9.25231 30.5007 11.1211C30.5007 12.9743 31.8557 14.2748 33.4286 14.2748C35.0094 14.2748 36.3565 12.9666 36.3565 11.1211Z" fill="#FFBA40"/>
<path d="M8.32377 14.041C5.06102 14.041 2.50702 11.409 2.50702 8.14623C2.50702 4.8836 5.06102 2.2516 8.32377 2.2516C10.0836 2.2516 11.3684 2.9446 12.3184 3.83235L13.8836 2.26723C12.5599 0.997977 10.7923 0.0322266 8.32377 0.0322266C3.85414 0.0323516 0.0930176 3.67673 0.0930176 8.14623C0.0930176 12.6157 3.85414 16.2602 8.32377 16.2602C10.7378 16.2602 12.5599 15.466 13.9849 13.9865C15.4488 12.5225 15.9004 10.4667 15.9004 8.80035C15.9004 8.2786 15.8381 7.74135 15.768 7.34423H8.32377V9.50898H13.6266C13.4709 10.864 13.0426 11.7906 12.4119 12.4212C11.6488 13.1922 10.4419 14.041 8.32377 14.041Z" fill="#3686F7"/>
</g>
<defs>
<clipPath id="clip0_598_10">
<rect width="64" height="21" fill="white"/>
</clipPath>
</defs>
</svg>
