<svg width="36" height="36" viewBox="0 0 36 36" fill="none" xmlns="http://www.w3.org/2000/svg">
<path d="M1 30.75C1 28.4957 1.89553 26.3337 3.48959 24.7396C5.08365 23.1455 7.24566 22.25 9.5 22.25H26.5C28.7543 22.25 30.9163 23.1455 32.5104 24.7396C34.1045 26.3337 35 28.4957 35 30.75C35 31.8772 34.5522 32.9582 33.7552 33.7552C32.9582 34.5522 31.8772 35 30.75 35H5.25C4.12283 35 3.04183 34.5522 2.2448 33.7552C1.44777 32.9582 1 31.8772 1 30.75Z" stroke="white" stroke-width="2" stroke-linejoin="round"/>
<path d="M18 13.75C21.5208 13.75 24.375 10.8958 24.375 7.375C24.375 3.85418 21.5208 1 18 1C14.4792 1 11.625 3.85418 11.625 7.375C11.625 10.8958 14.4792 13.75 18 13.75Z" stroke="white" stroke-width="2"/>
</svg>
