<svg width="89" height="89" viewBox="0 0 89 89" fill="none" xmlns="http://www.w3.org/2000/svg">
<path d="M44.8709 77.875C43.8202 77.875 42.9401 77.519 42.2305 76.807C41.521 76.095 41.165 75.2149 41.1625 74.1667C41.1625 73.734 41.2552 73.2853 41.4406 72.8206C41.6261 72.3558 41.9042 71.9392 42.275 71.5708L59.4261 54.4198L56.7375 51.7313L39.6792 68.8823C39.3084 69.2531 38.9066 69.5313 38.474 69.7167C38.0413 69.9021 37.5778 69.9948 37.0834 69.9948C36.0327 69.9948 35.1526 69.64 34.443 68.9305C33.7335 68.221 33.3775 67.3396 33.375 66.2865C33.375 65.6684 33.4677 65.1579 33.6531 64.7549C33.8386 64.352 34.0858 63.9972 34.3948 63.6906L51.5459 46.5396L48.95 43.9438L31.799 61.0021C31.4281 61.3729 31.0264 61.6511 30.5938 61.8365C30.1611 62.0219 29.6667 62.1146 29.1104 62.1146C28.1215 62.1146 27.2563 61.7438 26.5146 61.0021C25.7729 60.2604 25.4021 59.3952 25.4021 58.4063C25.4021 57.9118 25.4948 57.4483 25.6802 57.0156C25.8656 56.583 26.1438 56.1813 26.5146 55.8104L43.6656 38.6594L40.9771 36.0636L23.9188 53.2146C23.6097 53.5236 23.2389 53.7709 22.8063 53.9563C22.3736 54.1417 21.8483 54.2344 21.2302 54.2344C20.1795 54.2344 19.2982 53.8784 18.5862 53.1664C17.8742 52.4544 17.5194 51.5743 17.5219 50.5261C17.5219 50.0316 17.6146 49.5681 17.8 49.1354C17.9854 48.7028 18.2636 48.3011 18.6344 47.9302L39.3084 27.2563L53.2146 41.2552C53.8945 41.9351 54.6979 42.4765 55.625 42.8795C56.5521 43.2824 57.4792 43.4827 58.4063 43.4802C60.3841 43.4802 62.1146 42.7855 63.5979 41.3961C65.0813 40.0068 65.8229 38.2292 65.8229 36.0636C65.8229 35.1983 65.6684 34.3021 65.3594 33.375C65.0504 32.4479 64.4941 31.5827 63.6906 30.7792L47.0959 14.1844C48.1466 13.1955 49.3209 12.439 50.6188 11.9149C51.9167 11.3908 53.2146 11.1275 54.5125 11.125C56.1195 11.125 57.6028 11.3883 58.9625 11.9149C60.3222 12.4415 61.5584 13.2598 62.6709 14.3698L78.3386 30.1302C79.4511 31.2427 80.2706 32.4788 80.7972 33.8386C81.3238 35.1983 81.5858 36.7743 81.5834 38.5667C81.5834 39.8028 81.3052 41.055 80.749 42.3232C80.1927 43.5915 79.3893 44.7497 78.3386 45.7979L47.4667 76.7625C46.9722 77.257 46.5396 77.566 46.1688 77.6896C45.7979 77.8132 45.3653 77.875 44.8709 77.875ZM13.0719 48.2083L10.6615 45.7979C9.61078 44.809 8.80731 43.6347 8.25106 42.275C7.69481 40.9153 7.41669 39.4938 7.41669 38.0104C7.41669 36.4035 7.72571 34.9202 8.34377 33.5604C8.96183 32.2007 9.7344 31.0573 10.6615 30.1302L26.3292 14.3698C27.3181 13.3809 28.4924 12.5923 29.8521 12.0039C31.2118 11.4155 32.5406 11.1225 33.8386 11.125C35.5073 11.125 36.9906 11.3574 38.2886 11.8222C39.5865 12.287 40.8535 13.1362 42.0896 14.3698L61.0948 33.375C61.4657 33.7459 61.7438 34.1476 61.9292 34.5802C62.1146 35.0129 62.2073 35.4764 62.2073 35.9708C62.2073 36.9597 61.8365 37.825 61.0948 38.5667C60.3532 39.3083 59.4879 39.6792 58.499 39.6792C57.9427 39.6792 57.4792 39.6025 57.1084 39.4493C56.7375 39.296 56.3358 39.0018 55.9031 38.5667L39.2156 22.0646L13.0719 48.2083Z" fill="#3EBAEF"/>
</svg>
