<svg width="47" height="47" viewBox="0 0 47 47" fill="none" xmlns="http://www.w3.org/2000/svg">
<path d="M23.5 19.5833C24.4001 19.5833 25.2914 19.406 26.123 19.0616C26.9546 18.7171 27.7102 18.2123 28.3466 17.5758C28.9831 16.9393 29.488 16.1837 29.8324 15.3521C30.1769 14.5206 30.3542 13.6293 30.3542 12.7292C30.3542 11.8291 30.1769 10.9378 29.8324 10.1062C29.488 9.2746 28.9831 8.51901 28.3466 7.88254C27.7102 7.24607 26.9546 6.7412 26.123 6.39674C25.2914 6.05229 24.4001 5.875 23.5 5.875C21.6822 5.875 19.9388 6.59713 18.6534 7.88254C17.368 9.16794 16.6458 10.9113 16.6458 12.7292C16.6458 14.547 17.368 16.2904 18.6534 17.5758C19.9388 18.8612 21.6822 19.5833 23.5 19.5833ZM5.875 39.95V41.125H41.125V39.95C41.125 35.5633 41.125 33.37 40.2712 31.6937C39.5202 30.2198 38.3219 29.0215 36.848 28.2705C35.1717 27.4167 32.9783 27.4167 28.5917 27.4167H18.4083C14.0217 27.4167 11.8283 27.4167 10.152 28.2705C8.67813 29.0215 7.47983 30.2198 6.72883 31.6937C5.875 33.37 5.875 35.5633 5.875 39.95Z" fill="#ED6D00" stroke="#ED6D00" stroke-width="2" stroke-linecap="round" stroke-linejoin="round"/>
</svg>
